<?xml version="1.0" encoding="UTF-8"?>
<!-- Created with Inkscape (http://www.inkscape.org/) -->
<svg width="96" height="96" version="1.1" viewBox="0 0 25.4 25.4" xmlns="http://www.w3.org/2000/svg">
 <g stroke="#000">
  <g>
   <path d="m16.758 10.225-0.78645-0.7691-0.72484-0.4111-0.87629-0.31373-1.2333-0.054092-0.97366 0.22719-0.81138 0.37864-0.5842 0.48683-0.54092 0.63829-0.4111 0.65992-0.21637 0.76811-0.10818 0.8222 0.086548 0.96284 0.20555 0.71402 0.37864 0.68156 0.56256 0.67074 0.73565 0.54092 0.98448 0.43274 0.91957 0.15146 0.87629-0.07573 0.83302-0.21637 0.7032-0.37864 0.54725-0.3486 3.0769 4.3514-0.54092 0.40028-0.87629 0.5301-1.309 0.55174-1.6119 0.4111-1.6985 0.12982-1.4929-0.16228-1.2766-0.32455-0.97366-0.37864-1.2225-0.7032-0.89793-0.63829-0.77893-0.76811-0.74647-0.87629-0.65992-1.0278-0.47601-0.9953-0.44356-1.2982-0.20555-1.2117-0.064911-1.1251 0.064911-1.0818 0.18391-1.0278 0.33537-1.0494 0.42192-0.97366 0.5301-0.96284 0.60583-0.8222 0.81138-0.87629 0.77893-0.65992 0.87629-0.58419 0.83302-0.40028 0.95202-0.4111 1.5146-0.34619 1.2874-0.12982 1.2441 0.086547 1.2874 0.21637 1.0278 0.31373 1.0494 0.47601 0.98448 0.5842 0.85466 0.62747 0.68156 0.64911 0.50964 0.63842z" fill="#999" stroke-width=".52917"/>
   <ellipse transform="matrix(.77951 -.62639 .65609 .75468 0 0)" cx="8.625" cy="18.666" rx="2.7092" ry="1.2741" fill="#f9f9f9" stroke-linecap="round" stroke-linejoin="bevel" stroke-width=".52936"/>
   <ellipse transform="matrix(.61115 .79152 -.76727 .64132 0 0)" cx="25.282" cy="-3.377" rx="2.7092" ry="1.2741" fill="#f9f9f9" stroke-linecap="round" stroke-linejoin="bevel" stroke-width=".52936"/>
  </g>
  <path d="m1.8134 12.639h19.728" fill="none" stroke-dasharray="2.11666692,2.11666692" stroke-width=".52917"/>
 </g>
</svg>
