<?xml version="1.0" encoding="UTF-8"?>
<!-- Created with Inkscape (http://www.inkscape.org/) -->
<svg width="96" height="96" version="1.1" viewBox="0 0 25.4 25.4" xmlns="http://www.w3.org/2000/svg">
 <g stroke="#000" stroke-linejoin="bevel" stroke-width=".55562">
  <path d="m4.6234 22.52h18.823v-18.039l-11.722-0.049139s-3.9937 0.31251-5.7405 1.7944c-1.4742 1.4005-1.3249 4.9592-1.3249 4.9592z" fill="#f9f9f9"/>
  <path d="m4.6596 11.185-2.338-2.338v10.982l2.3018 2.6904z" fill="#f9f9f9"/>
  <path d="m4.6596 11.185-2.338-2.338s-0.22425-2.7034 2.4202-4.9459c2.5398-1.8539 4.7372-1.5449 4.7372-1.5449l2.6637 2.1242s-3.0618-0.34491-5.4839 1.6339c-2.4344 1.8629-1.9992 5.0706-1.9992 5.0706" fill="#b3b3b3"/>
  <path d="m23.447 4.4808-2.1866-2.1866-11.781 0.062377 2.6637 2.1242h11.304" fill="#f9f9f9"/>
 </g>
</svg>
