<?xml version="1.0" encoding="UTF-8"?>
<!-- Created with Inkscape (http://www.inkscape.org/) -->
<svg width="96" height="96" version="1.1" viewBox="0 0 25.4 25.4" xmlns="http://www.w3.org/2000/svg">
 <g stroke="#000" stroke-linejoin="bevel">
  <g fill="#f9f9f9" stroke-width=".52917">
   <rect x="6.6954" y="6.6405" width="15.97" height="15.97" stroke-linecap="round"/>
   <path d="m6.6954 6.6405-2.3873-2.3873h15.742l2.6156 2.3873z"/>
   <path d="m4.3081 4.2532 2.3873 2.3873v15.97l-2.3758-2.4502z"/>
  </g>
  <g transform="rotate(182.64 13.861 13.977)" fill="#b3b3b3" stroke-linecap="round" stroke-width="2">
   <path transform="scale(.26458)" d="m64.037 38.561a18.95 18.95 0 0 0-1.209-0.5957 18.95 18.95 0 0 0-1.3066-0.52539 18.95 18.95 0 0 0-1.3438-0.42773 18.95 18.95 0 0 0-1.3711-0.32812 18.95 18.95 0 0 0-1.3906-0.22461 18.95 18.95 0 0 0-1.4043-0.11914 18.95 18.95 0 0 0-1.4082-0.01563 18.95 18.95 0 0 0-1.4082 0.08984 18.95 18.95 0 0 0-1.3945 0.19336 18.95 18.95 0 0 0-1.3789 0.29688 18.95 18.95 0 0 0-1.3516 0.39844 18.95 18.95 0 0 0-1.3184 0.49805 18.95 18.95 0 0 0-1.2773 0.59375 18.95 18.95 0 0 0-1.2305 0.6875 18.95 18.95 0 0 0-1.1758 0.77734 18.95 18.95 0 0 0-1.1133 0.86328 18.95 18.95 0 0 0-1.0488 0.94336 18.95 18.95 0 0 0-0.97266 1.0176 18.95 18.95 0 0 0-0.89648 1.0879 18.95 18.95 0 0 0-0.8125 1.1504 18.95 18.95 0 0 0-0.72656 1.209 18.95 18.95 0 0 0-0.63281 1.2578 18.95 18.95 0 0 0-0.53711 1.3027 18.95 18.95 0 0 0-0.43945 1.3398 18.95 18.95 0 0 0-0.33984 1.3672 18.95 18.95 0 0 0-0.23633 1.3906 18.95 18.95 0 0 0-0.13086 1.4023 18.95 18.95 0 0 0-0.0293 1.4082 18.95 18.95 0 0 0 0.07813 1.4082 18.95 18.95 0 0 0 0.18164 1.3965 18.95 18.95 0 0 0 0.28516 1.3809 18.95 18.95 0 0 0 0.38672 1.3555 18.95 18.95 0 0 0 0.48633 1.3223 18.95 18.95 0 0 0 0.58203 1.2832 18.95 18.95 0 0 0 0.67773 1.2363 18.95 18.95 0 0 0 0.76562 1.1816 18.95 18.95 0 0 0 0.85352 1.123 18.95 18.95 0 0 0 0.5625 0.63477 18.95 18.95 0 0 0 9.1172 2.2598 18.95 18.95 0 0 0 18.785-18.951l-0.01172-0.66406a18.95 18.95 0 0 0-4.8652-12.006z"/>
   <path transform="scale(.26458)" d="m49.465 32.287a18.95 18.95 0 0 0-18.449 19.275 18.95 18.95 0 0 0 9.9961 16.359 18.95 18.95 0 0 1-0.5625-0.63477 18.95 18.95 0 0 1-0.85352-1.123 18.95 18.95 0 0 1-0.76562-1.1816 18.95 18.95 0 0 1-0.67773-1.2363 18.95 18.95 0 0 1-0.58203-1.2832 18.95 18.95 0 0 1-0.48633-1.3223 18.95 18.95 0 0 1-0.38672-1.3555 18.95 18.95 0 0 1-0.28516-1.3809 18.95 18.95 0 0 1-0.18164-1.3965 18.95 18.95 0 0 1-0.07813-1.4082 18.95 18.95 0 0 1 0.0293-1.4082 18.95 18.95 0 0 1 0.13086-1.4023 18.95 18.95 0 0 1 0.23633-1.3906 18.95 18.95 0 0 1 0.33984-1.3672 18.95 18.95 0 0 1 0.43945-1.3398 18.95 18.95 0 0 1 0.53711-1.3027 18.95 18.95 0 0 1 0.63281-1.2578 18.95 18.95 0 0 1 0.72656-1.209 18.95 18.95 0 0 1 0.8125-1.1504 18.95 18.95 0 0 1 0.89648-1.0879 18.95 18.95 0 0 1 0.97266-1.0176 18.95 18.95 0 0 1 1.0488-0.94336 18.95 18.95 0 0 1 1.1133-0.86328 18.95 18.95 0 0 1 1.1758-0.77734 18.95 18.95 0 0 1 1.2305-0.6875 18.95 18.95 0 0 1 1.2773-0.59375 18.95 18.95 0 0 1 1.3184-0.49805 18.95 18.95 0 0 1 1.3516-0.39844 18.95 18.95 0 0 1 1.3789-0.29688 18.95 18.95 0 0 1 1.3945-0.19336 18.95 18.95 0 0 1 1.4082-0.08984 18.95 18.95 0 0 1 1.4082 0.01563 18.95 18.95 0 0 1 1.4043 0.11914 18.95 18.95 0 0 1 1.3906 0.22461 18.95 18.95 0 0 1 1.3711 0.32812 18.95 18.95 0 0 1 1.3438 0.42773 18.95 18.95 0 0 1 1.3066 0.52539 18.95 18.95 0 0 1 1.209 0.5957 18.95 18.95 0 0 0-14.572-6.2734z"/>
  </g>
 </g>
</svg>
