<?xml version="1.0" encoding="UTF-8"?>
<!-- Created with Inkscape (http://www.inkscape.org/) -->
<svg width="96" height="96" version="1.1" viewBox="0 0 25.4 25.4" xmlns="http://www.w3.org/2000/svg">
 <g stroke="#000" stroke-width=".52917">
  <g fill="#f9f9f9" stroke-linejoin="bevel">
   <path d="m5.0388 22.881h18.31v-2.9394h-18.311z"/>
   <path d="m5.0388 22.881-2.9217-2.9217v-2.933l2.9211 2.9153 5.821e-4 2.9394"/>
   <path d="m23.349 19.942h-18.311l-2.9211-2.9153h18.289z"/>
  </g>
  <path d="m5.7052 18.379h10.917l1.0511 1.0511h1.8256l-1.9639-1.9639-12.604 0.1383 0.77449 0.77449" fill="none" stroke-linejoin="bevel"/>
  <g fill="#b3b3b3" stroke-linejoin="bevel">
   <path d="m4.9308 17.605 0.77449 0.77449v-9.1832l-0.75605-0.79293z"/>
   <path d="m16.622 18.379h-10.917v-9.1832h10.926z"/>
   <path d="m16.622 18.379 0.0097-9.1832 1.0519 1.0952-0.01053 9.1391z"/>
   <path d="m17.673 19.43 0.01056-9.1391h1.8026l0.01237 9.1391z"/>
   <path d="m4.9492 8.4031 0.75605 0.79293h10.926l1.0519 1.0952h1.8026l-1.901-1.8826z"/>
  </g>
  <path d="m12.03 6.8907v-5.6481" fill="none"/>
  <path d="m13.781 4.0102-1.7509-2.7676-1.7509 2.7111 1.6944-0.39537z"/>
 </g>
</svg>
