<?xml version="1.0" standalone="no"?>
<!DOCTYPE svg PUBLIC "-//W3C//DTD SVG 20010904//EN"
 "http://www.w3.org/TR/2001/REC-SVG-20010904/DTD/svg10.dtd">
<svg version="1.0" xmlns="http://www.w3.org/2000/svg"
 width="200.000000pt" height="200.000000pt" viewBox="0 0 200.000000 200.000000"
 preserveAspectRatio="xMidYMid meet">
<metadata>
Created by potrace 1.14, written by Peter Selinger 2001-2017
</metadata>
<g transform="translate(0.000000,200.000000) scale(0.100000,-0.100000)"
fill="#000000" stroke="none">
<path d="M799 1798 c-222 -127 -366 -209 -491 -280 -49 -27 -88 -53 -88 -56 0
-7 22 -21 110 -70 25 -13 86 -48 135 -77 50 -29 151 -87 225 -130 74 -42 160
-92 190 -110 120 -71 114 -70 173 -37 206 114 727 417 727 423 0 8 -56 41
-270 161 -58 33 -175 100 -260 149 -142 83 -244 139 -253 139 -2 0 -91 -50
-198 -112z m296 46 c44 -25 127 -73 185 -106 116 -68 259 -149 393 -225 l88
-50 -28 -18 c-15 -11 -73 -44 -128 -76 -147 -83 -292 -165 -452 -258 -77 -44
-146 -81 -153 -81 -6 0 -55 25 -108 56 -195 113 -230 133 -372 214 -80 45
-176 101 -214 122 l-69 40 59 32 c80 43 291 164 334 191 39 25 180 105 184
105 2 0 40 23 86 50 46 28 90 50 99 50 9 0 52 -21 96 -46z"/>
<path d="M142 934 l3 -396 105 -61 c58 -33 137 -78 175 -99 39 -22 86 -50 105
-63 19 -12 82 -49 139 -81 110 -62 129 -73 203 -116 26 -16 51 -28 57 -28 8 0
11 120 11 394 l0 394 -47 28 c-27 15 -93 52 -148 84 -284 162 -561 323 -569
331 -6 5 -16 9 -23 9 -11 0 -13 -75 -11 -396z m183 283 c66 -38 165 -96 410
-237 88 -51 166 -97 173 -102 9 -8 12 -98 12 -389 0 -209 -4 -379 -8 -379 -4
0 -12 4 -18 9 -5 5 -85 53 -179 107 -204 117 -321 184 -436 251 -48 27 -94 53
-103 56 -14 6 -16 45 -16 392 l0 386 53 -30 c28 -16 79 -45 112 -64z"/>
<path d="M1735 1266 c-60 -35 -209 -120 -330 -189 -121 -70 -227 -131 -235
-137 -8 -5 -28 -17 -45 -26 -70 -38 -65 -6 -65 -436 0 -269 3 -388 11 -388 6
0 54 25 107 56 53 31 142 82 197 114 55 31 145 83 200 115 55 32 141 82 190
110 l90 51 3 397 c1 218 -1 397 -5 397 -5 -1 -57 -29 -118 -64z m113 -338 l-3
-382 -98 -56 c-145 -82 -427 -244 -550 -317 -59 -34 -109 -63 -112 -63 -3 0
-4 172 -3 381 l3 382 62 37 c34 21 101 61 150 88 48 27 144 83 213 122 279
162 325 189 333 189 4 1 6 -171 5 -381z"/>
</g>
</svg>
