<?xml version="1.0" standalone="no"?>
<!DOCTYPE svg PUBLIC "-//W3C//DTD SVG 20010904//EN"
 "http://www.w3.org/TR/2001/REC-SVG-20010904/DTD/svg10.dtd">
<svg version="1.0" xmlns="http://www.w3.org/2000/svg"
 width="200.000000pt" height="200.000000pt" viewBox="0 0 200.000000 200.000000"
 preserveAspectRatio="xMidYMid meet">
<metadata>
Created by potrace 1.14, written by Peter Selinger 2001-2017
</metadata>
<g transform="translate(0.000000,200.000000) scale(0.100000,-0.100000)"
fill="#000000" stroke="none">
<path d="M935 1882 c-27 -16 -142 -82 -255 -147 -113 -65 -214 -123 -225 -130
-28 -15 -134 -76 -170 -98 -16 -10 -38 -20 -48 -23 -9 -4 -17 -12 -17 -18 0
-13 30 -31 255 -158 202 -114 355 -202 442 -255 40 -23 77 -43 82 -43 6 0 34
14 63 31 75 45 303 176 368 213 221 124 350 201 350 210 0 6 -49 38 -107 71
-59 33 -135 75 -168 94 -33 18 -88 51 -122 72 -34 22 -64 39 -67 39 -2 0 -70
38 -151 85 -80 47 -154 85 -163 85 -9 0 -39 -13 -67 -28z"/>
<path d="M142 938 l3 -402 190 -110 c105 -60 244 -141 310 -179 201 -117 289
-166 293 -162 2 2 3 180 3 396 0 368 -1 394 -18 407 -17 12 -171 101 -418 242
-167 94 -299 172 -327 191 -14 11 -29 19 -32 19 -3 0 -5 -181 -4 -402z"/>
<path d="M1835 1331 c-11 -11 -141 -87 -470 -276 -126 -73 -247 -142 -267
-155 l-38 -22 0 -399 c0 -445 -7 -411 70 -364 81 50 710 413 724 418 10 3 17
764 8 795 -5 14 -14 15 -27 3z"/>
</g>
</svg>
